<?xml version="1.0" encoding="UTF-8"?> <svg xmlns="http://www.w3.org/2000/svg" xmlns:xlink="http://www.w3.org/1999/xlink" viewBox="0 0 540 540"><defs><clipPath id="clip-path" transform="translate(0 0)"><path d="M350.93,84.86H509.48a4.63,4.63,0,0,1,4.63,4.63v96.2a4.63,4.63,0,0,1-4.63,4.63H405.18l-28.31,24.82V190.32H350.93a4.63,4.63,0,0,1-4.63-4.63V89.49A4.63,4.63,0,0,1,350.93,84.86Z" style="fill:none"></path></clipPath><clipPath id="clip-path-2" transform="translate(0 0)"><path d="M152.87,294.25H43.5a4.42,4.42,0,0,0-4.42,4.42v91.75a4.42,4.42,0,0,0,4.42,4.42h57.63l27,23.67V394.84h24.74a4.41,4.41,0,0,0,4.41-4.42V298.67A4.41,4.41,0,0,0,152.87,294.25Z" style="fill:none"></path></clipPath></defs><g id="Layer_1" data-name="Layer 1"><rect width="540" height="540" style="fill:#d5e1eb"></rect></g><g id="Person"><circle cx="269.75" cy="287.84" r="176.8" style="fill:#7eb68b"></circle><rect x="176.69" y="177.84" width="185.79" height="255.51" style="fill:#eeecf2"></rect><path d="M214.78,139.75h109.6a38.09,38.09,0,0,1,38.09,38.09v0a0,0,0,0,1,0,0H176.69a0,0,0,0,1,0,0v0A38.09,38.09,0,0,1,214.78,139.75Z" style="fill:#bbb1cc"></path><path d="M214.78,433.36h109.6a38.09,38.09,0,0,1,38.09,38.09v0a0,0,0,0,1,0,0H176.69a0,0,0,0,1,0,0v0A38.09,38.09,0,0,1,214.78,433.36Z" transform="translate(539.17 904.8) rotate(180)" style="fill:#bbb1cc"></path><rect x="248.36" y="155.45" width="42.44" height="6.68" rx="3.34" style="fill:#ddd8e6"></rect><circle cx="307.88" cy="158.79" r="4.51" style="fill:#ddd8e6"></circle><path d="M365.49,196.6h0a0,0,0,0,1,0,0v25.18a0,0,0,0,1,0,0h0a3,3,0,0,1-3-3V199.61A3,3,0,0,1,365.49,196.6Z" transform="translate(727.96 418.38) rotate(180)" style="fill:#bbb1cc"></path><path d="M365.49,233h0a0,0,0,0,1,0,0v25.18a0,0,0,0,1,0,0h0a3,3,0,0,1-3-3V236A3,3,0,0,1,365.49,233Z" transform="translate(727.96 491.14) rotate(-180)" style="fill:#bbb1cc"></path><circle cx="269.58" cy="452.4" r="9.68" style="fill:#988bb3"></circle><path d="M142.37,227a76,76,0,1,0-76-76c0,64.12,55.85,98.25,76,98.25Z" transform="translate(0 0)" style="fill:#fff"></path><path d="M350.93,84.86H509.48a4.63,4.63,0,0,1,4.63,4.63v96.2a4.63,4.63,0,0,1-4.63,4.63H405.18l-28.31,24.82V190.32H350.93a4.63,4.63,0,0,1-4.63-4.63V89.49A4.63,4.63,0,0,1,350.93,84.86Z" transform="translate(0 0)" style="fill:#fff"></path><g style="clip-path:url(#clip-path)"><path d="M475,182.82l-6.88-3.11a11.67,11.67,0,0,0,.27-2.43c0-11.44-16.51-20.71-36.88-20.71s-36.87,9.27-36.87,20.71a11.66,11.66,0,0,0,.26,2.43L388,182.82c-6.5,2.94-11.64,9.46-11.64,16.66v60.3h48.09v-2.84c0-5.53-2-56.05-5.59-60.2a64.74,64.74,0,0,0,25.12,0c-3.58,4.15-5.57,54.67-5.57,60.18v2.84h47.26v-60.3A18.26,18.26,0,0,0,475,182.82Z" transform="translate(0 0)" style="fill:#9183ad"></path><path d="M444.16,196.45l17.52-19.76L448,170.5v.14H414.9v-.14l-13.73,6.23,17.48,19.72c3.72,4.2,5.78,54.84,5.78,60.48v2.85h14v-2.85C438.39,251.29,440.45,200.65,444.16,196.45Z" transform="translate(0 0)" style="fill:#d4cedf"></path><path d="M401.17,176.65l13.73-6.15v-3a10.62,10.62,0,0,1-1.77-2.45c-.8.32-1.54.66-2.24,1C402.19,170.45,401.17,176.65,401.17,176.65Z" transform="translate(0 0)" style="fill:#bbb1cc"></path><polygon points="447.95 167.57 447.95 167.57 447.97 167.56 447.95 167.57" style="fill:#bbb1cc"></polygon><path d="M449.82,165a10.2,10.2,0,0,1-1.78,2.47v3l13.64,6.1S460.5,169.4,449.82,165Z" transform="translate(0 0)" style="fill:#bbb1cc"></path><path d="M431.74,163.44c-8.59.36-17.76.31-20.06,2.35s2.3,4.33,2.3,4.33l22.91.07,7.74.92-.09-.3,3-1.06s3.62-4.14,2.31-4.71C442.21,161.68,434.26,163.33,431.74,163.44Z" transform="translate(0 0)" style="fill:#bbb1cc"></path><path d="M450.94,154.34c1.83-.93,4-4,5.53-8,2-5.27,2-10.14.07-10.87a1.56,1.56,0,0,0-.86-.06,2.24,2.24,0,0,0-1.62,1.4L452.28,141l-1.77-3.47a4.66,4.66,0,0,1-.35-3.3l1-3.83a7.37,7.37,0,0,0-8.14-9.17l-7.6,1a29.76,29.76,0,0,1-8,0l-7.6-1a7.37,7.37,0,0,0-8.14,9.17l1,3.83a4.66,4.66,0,0,1-.35,3.3L410.58,141l-1.78-4.17a2.24,2.24,0,0,0-1.62-1.4,1.56,1.56,0,0,0-.86.06c-1.95.73-1.92,5.6.07,10.87,1.5,4,3.7,7.09,5.53,8" transform="translate(0 0)" style="fill:#f1eff5"></path><path d="M407.21,135.39a2.28,2.28,0,0,1,1.59,1.4l1.78,4.17,1.77-3.47a4.66,4.66,0,0,0,.35-3.3l-1-3.83a7.37,7.37,0,0,1,8.14-9.17l7.6,1a29.76,29.76,0,0,0,8,0l7.6-1a7.37,7.37,0,0,1,8.14,9.17l-1,3.83a4.66,4.66,0,0,0,.35,3.3l1.77,3.47,1.78-4.17a2.28,2.28,0,0,1,1.59-1.4,1.62,1.62,0,0,1,.85.05V115.81a13,13,0,0,0-5.44-10.61l-6.59-4.71a22.41,22.41,0,0,0-26.08,0l-6.59,4.71a13,13,0,0,0-5.44,10.61v19.63A1.62,1.62,0,0,1,407.21,135.39Z" transform="translate(0 0)" style="fill:#ada2c2"></path><path d="M439.29,168.87a7.75,7.75,0,0,1-4.35,1.34l-3.51,4.43-3.51-4.43a7.75,7.75,0,0,1-4.35-1.34l-8.71-10.35v12a16.57,16.57,0,0,0,16.57,16.57h0A16.57,16.57,0,0,0,448,170.52v-12Z" transform="translate(0 0)" style="fill:#e4e0eb"></path><path d="M450.94,154.35h-39a21.39,21.39,0,0,0,9.6,15.87,10.83,10.83,0,0,1,2.56,2.26,6.45,6.45,0,0,0,5,2.36h4.74a6.46,6.46,0,0,0,5-2.36,10.83,10.83,0,0,1,2.56-2.26,21.39,21.39,0,0,0,9.6-15.87Z" transform="translate(0 0)" style="fill:#f1eff5"></path></g><path d="M152.87,294.25H43.5a4.42,4.42,0,0,0-4.42,4.42v91.75a4.42,4.42,0,0,0,4.42,4.42h57.63l27,23.67V394.84h24.74a4.41,4.41,0,0,0,4.41-4.42V298.67A4.41,4.41,0,0,0,152.87,294.25Z" transform="translate(0 0)" style="fill:#fff"></path><g style="clip-path:url(#clip-path-2)"><rect x="75.78" y="386.34" width="44.83" height="78.2" style="fill:#988bb3"></rect><path d="M114.68,374a8.11,8.11,0,0,1-4.27-7.14v-.09a18.93,18.93,0,0,1-7.65,3.58,18.67,18.67,0,0,1-8.6-.24,19,19,0,0,1-7.66-3.58v.34A8.08,8.08,0,0,1,82.16,374l-.81.26-13.27,4.28,6.44,4.37a49.07,49.07,0,0,0,14.83,8.28,27.5,27.5,0,0,0,18.09,0,49,49,0,0,0,14.84-8.28l6-4.51L115,374.12Z" transform="translate(0 0)" style="fill:#aea3c3"></path><path d="M87.73,464.42c0-12.78-3.2-80.59-8.47-89.5l-23.62,7.66a7.75,7.75,0,0,0-5.22,8.64l2.82,73.32H87.73Z" transform="translate(0 0)" style="fill:#7f6da0"></path><path d="M109.07,464.42c0-12.78,3.2-80.59,8.47-89.5l23.62,7.66a7.75,7.75,0,0,1,5.22,8.64l-2.83,73.32H109.07Z" transform="translate(0 0)" style="fill:#7f6da0"></path><path d="M89.93,368.64,78,360.22a22.62,22.62,0,0,1-9.59-22.15c1.36-8.35,4.54-18.68,11.81-26.65a25.61,25.61,0,0,1,37.43,0c7.26,8,10.45,18.3,11.81,26.65a22.6,22.6,0,0,1-9.6,22.15l-11.93,8.42Z" transform="translate(0 0)" style="fill:#e2e0df"></path><path d="M118.91,344a1.91,1.91,0,0,0-1.75.44,19.6,19.6,0,0,0,.53-7.94h-3.11c.76-2.2-1.15-9.77-2.17-10.83a19.31,19.31,0,0,1-5.23,10.83H79a20.89,20.89,0,0,0-.19,2.52v.17a18.17,18.17,0,0,0,.1,2,18.64,18.64,0,0,0,.62,3.28,1.91,1.91,0,0,0-1.75-.44c-1.6.6-1.58,4.6,0,8.92,1.23,3.28,3,5.81,4.53,6.58,1.79,9.36,10.17,13.31,14,14.65a5.86,5.86,0,0,0,3.92,0c3.87-1.34,12.25-5.29,14-14.65,1.49-.77,3.3-3.3,4.53-6.58C120.49,348.58,120.51,344.58,118.91,344Z" transform="translate(0 0)" style="fill:#bbb1cc"></path></g><path d="M437.34,372.33a55.57,55.57,0,1,1,55.9-55.57c0,46.87-41.07,71.82-55.9,71.82Z" transform="translate(0 0)" style="fill:#fff"></path><ellipse cx="142.37" cy="175.5" rx="40.08" ry="10.68" style="fill:#bbb1cc"></ellipse><path d="M172.17,175.5c0,4.38-13.34,7-29.8,7s-29.79-2.66-29.79-7,13.34-7.94,29.79-7.94S172.17,171.12,172.17,175.5Z" transform="translate(0 0)" style="fill:#ddd8e6"></path><path d="M172.17,175.5s0-6.18-29.8-6.18-29.79,6.18-29.79,6.18c0-4.38,13.34-7.94,29.79-7.94S172.17,171.12,172.17,175.5Z" transform="translate(0 0)" style="fill:#988bb3"></path><rect x="117.98" y="133.27" width="48.77" height="44.64" style="fill:#bbb1cc"></rect><polyline points="117.98 133.27 137.09 125.99 166.76 133.27" style="fill:#988bb3"></polyline><rect x="117.98" y="145.21" width="48.77" height="3.68" style="fill:#988bb3"></rect><rect x="117.98" y="161.27" width="48.77" height="3.68" style="fill:#988bb3"></rect><path d="M118,133.27a2.93,2.93,0,0,1,5.85,0Z" transform="translate(0 0)" style="fill:#ddd8e6"></path><path d="M123.06,131.41a2.93,2.93,0,0,1,5.85,0Z" transform="translate(0 0)" style="fill:#ddd8e6"></path><path d="M128,129.63a2.93,2.93,0,0,1,5.85,0Z" transform="translate(0 0)" style="fill:#ddd8e6"></path><path d="M132.9,127.65a2.93,2.93,0,0,1,5.85,0Z" transform="translate(0 0)" style="fill:#ddd8e6"></path><path d="M463.17,325.88l-23.69,23.69a1.27,1.27,0,0,1-.9.38,1.29,1.29,0,0,1-.91-.38L414,325.88a16.66,16.66,0,0,1,23.56-23.56,14.06,14.06,0,0,1,1,1.14c.33-.4.67-.78,1-1.14a16.66,16.66,0,1,1,23.56,23.56Z" transform="translate(0 0)" style="fill:#988bb3"></path><g id="WA_Logo" data-name="WA Logo"><path d="M309.3,261.23A55.35,55.35,0,0,0,222.2,328l-7.85,28.68,29.33-7.7a55.4,55.4,0,0,0,26.45,6.74h0a55.37,55.37,0,0,0,39.15-94.49Zm-39.15,85.14h0A45.93,45.93,0,0,1,246.72,340L245,339l-17.4,4.57,4.64-17-1.09-1.74a46,46,0,1,1,39,21.55Zm25.23-34.45c-1.38-.69-8.18-4-9.45-4.5s-2.19-.69-3.11.7-3.57,4.5-4.38,5.42-1.61,1-3,.34A37.71,37.71,0,0,1,264.33,307a41.42,41.42,0,0,1-7.69-9.58c-.81-1.38-.09-2.13.6-2.82s1.39-1.61,2.08-2.42a9.55,9.55,0,0,0,1.38-2.31,2.53,2.53,0,0,0-.12-2.42c-.34-.69-3.11-7.5-4.26-10.27s-2.26-2.33-3.11-2.37-1.73-.05-2.65-.05a5.11,5.11,0,0,0-3.69,1.73A15.53,15.53,0,0,0,242,288.05c0,6.8,5,13.38,5.65,14.3s9.75,14.89,23.62,20.88a82.17,82.17,0,0,0,7.88,2.91,19.08,19.08,0,0,0,8.71.55c2.66-.4,8.18-3.35,9.34-6.58s1.15-6,.8-6.57S296.76,312.62,295.38,311.92Z" transform="translate(0 0)" style="fill:#7eb68b;fill-rule:evenodd"></path></g></g></svg> 